<svg width="58" height="58" viewBox="0 0 58 58" fill="none" xmlns="http://www.w3.org/2000/svg">
<rect width="57.9401" height="57.9401" rx="28.97" fill="#DC9B1A"/>
<path d="M24.6823 38.8562C23.5517 38.8562 22.3928 38.8092 21.2056 38.7153C20.0184 38.6213 18.9443 38.4709 17.9833 38.2642L22.5058 19.375C23.58 19.1683 24.7012 19.0273 25.8695 18.9521C27.0567 18.8769 28.1402 18.8393 29.1201 18.8393C30.2507 18.8393 31.2212 18.9615 32.0315 19.2058C32.8606 19.4314 33.5296 19.7415 34.0384 20.1362C34.566 20.5309 34.9523 21.0008 35.1973 21.5458C35.4611 22.0721 35.593 22.636 35.593 23.2374C35.593 23.6509 35.5459 24.0832 35.4517 24.5343C35.3763 24.9854 35.2067 25.4365 34.9429 25.8875C34.6979 26.3198 34.3493 26.7333 33.8971 27.128C33.4636 27.5227 32.8889 27.8798 32.1728 28.1993C33.0208 28.5752 33.6427 29.0921 34.0384 29.7499C34.4341 30.389 34.632 31.1032 34.632 31.8926C34.632 32.7948 34.453 33.6687 34.0949 34.5145C33.7369 35.3415 33.1621 36.0839 32.3707 36.7418C31.5792 37.3808 30.5522 37.8977 29.2897 38.2924C28.0271 38.6683 26.4914 38.8562 24.6823 38.8562ZM24.2866 30.0601L23.0712 35.1348C23.3727 35.1912 23.7496 35.2381 24.2018 35.2757C24.6729 35.2945 25.1063 35.3039 25.502 35.3039C26.0674 35.3039 26.6233 35.2663 27.1697 35.1912C27.7351 35.0972 28.2344 34.9374 28.6678 34.7119C29.1201 34.4863 29.4876 34.1762 29.7702 33.7815C30.0529 33.3868 30.1942 32.8794 30.1942 32.2591C30.1942 31.996 30.1377 31.7328 30.0246 31.4697C29.9304 31.2066 29.7702 30.9716 29.5441 30.7649C29.318 30.5581 29.0165 30.389 28.6396 30.2574C28.2815 30.1259 27.8481 30.0601 27.3393 30.0601H24.2866ZM25.1063 26.7615H27.8764C29.007 26.7615 29.8456 26.5172 30.3921 26.0285C30.9574 25.5398 31.2401 24.9572 31.2401 24.2805C31.2401 23.9234 31.1553 23.6227 30.9857 23.3784C30.8349 23.1152 30.6276 22.9085 30.3638 22.7581C30.1 22.6078 29.7985 22.5044 29.4593 22.448C29.1201 22.3728 28.7715 22.3352 28.4134 22.3352C28.0177 22.3352 27.5937 22.354 27.1415 22.3916C26.6892 22.4104 26.35 22.4386 26.1239 22.4762L25.1063 26.7615Z" fill="white"/>
<path d="M15.356 18.2357H17.2097L12.1701 39.3486H10.3164L15.356 18.2357Z" fill="white"/>
<path d="M51.5825 28.792L37.1733 36.6103L38.2159 32.6435L45.2685 28.792L38.969 25.0559V21.1468L51.5825 28.792Z" fill="white"/>
</svg>
