<svg width="234" height="81" viewBox="0 0 234 81" fill="none" xmlns="http://www.w3.org/2000/svg">
<path d="M102.481 71.0897C99.3231 70.9698 96.6846 70.65 94.5657 70.1303C92.4469 69.6107 90.7278 68.9111 89.4085 68.0317C88.1292 67.1922 87.2097 66.1529 86.65 64.9137C86.0903 63.6744 85.8105 62.2753 85.8105 60.7163V60.2966C81.9726 59.4971 78.9143 57.6383 76.6355 54.7201C74.3967 51.802 73.2773 47.9844 73.2773 43.2674C73.2773 40.1494 73.817 37.0514 74.8964 33.9733C75.9759 30.8953 77.515 28.137 79.5139 25.6986C81.5528 23.2202 84.0315 21.2214 86.9499 19.7024C89.8683 18.1434 93.1665 17.3639 96.8445 17.3639C99.2831 17.3639 101.522 17.7636 103.561 18.5631C105.6 19.3626 107.359 20.5219 108.838 22.0409C110.317 23.52 111.456 25.3388 112.256 27.4974C113.096 29.6561 113.515 32.0945 113.515 34.8128C113.515 37.571 113.096 40.3493 112.256 43.1475C111.417 45.9057 110.177 48.4641 108.538 50.8226C106.939 53.1411 104.96 55.1399 102.601 56.8188C100.283 58.4977 97.624 59.637 94.6257 60.2366V60.4165C94.6257 61.2959 94.9055 61.9955 95.4652 62.5152C96.0649 63.0348 96.8445 63.4346 97.8039 63.7144C98.8034 63.9942 99.9428 64.1941 101.222 64.314C102.501 64.434 103.841 64.5339 105.24 64.6138L102.481 71.0897ZM95.885 25.3988C94.046 25.3988 92.3269 25.8785 90.7278 26.8379C89.1687 27.7972 87.7894 29.0764 86.5901 30.6754C85.4307 32.2744 84.5112 34.1132 83.8316 36.1919C83.1919 38.2706 82.8721 40.4092 82.8721 42.6078C82.8721 45.6059 83.4918 48.0444 84.7311 49.9232C86.0104 51.762 88.0693 52.6814 90.9077 52.6814C92.7467 52.6814 94.4458 52.2017 96.0049 51.2423C97.6041 50.283 98.9833 49.0038 100.143 47.4048C101.342 45.8058 102.262 43.987 102.901 41.9483C103.581 39.8696 103.921 37.7109 103.921 35.4724C103.921 32.4743 103.281 30.0558 102.002 28.217C100.762 26.3382 98.7235 25.3988 95.885 25.3988Z" fill="white"/>
<path d="M130.287 60.4165C127.889 60.4165 125.43 60.3166 122.911 60.1167C120.393 59.9168 118.114 59.597 116.075 59.1573L125.67 18.9828C127.949 18.5431 130.327 18.2433 132.806 18.0834C135.325 17.9235 137.623 17.8436 139.702 17.8436C142.101 17.8436 144.16 18.1034 145.879 18.6231C147.638 19.1028 149.057 19.7624 150.137 20.6018C151.256 21.4413 152.076 22.4407 152.595 23.5999C153.155 24.7192 153.435 25.9184 153.435 27.1976C153.435 28.0771 153.335 28.9965 153.135 29.9559C152.975 30.9153 152.615 31.8747 152.056 32.834C151.536 33.7535 150.796 34.6329 149.837 35.4724C148.917 36.3118 147.698 37.0714 146.179 37.7509C147.978 38.5504 149.297 39.6497 150.137 41.0488C150.976 42.408 151.396 43.927 151.396 45.6059C151.396 47.5247 151.016 49.3835 150.257 51.1824C149.497 52.9413 148.278 54.5203 146.599 55.9194C144.919 57.2785 142.741 58.3778 140.062 59.2173C137.384 60.0168 134.125 60.4165 130.287 60.4165ZM129.448 41.7084L126.869 52.5015C127.509 52.6215 128.309 52.7214 129.268 52.8014C130.267 52.8413 131.187 52.8613 132.026 52.8613C133.226 52.8613 134.405 52.7814 135.565 52.6215C136.764 52.4216 137.823 52.0818 138.743 51.6021C139.702 51.1224 140.482 50.4628 141.082 49.6234C141.681 48.7839 141.981 47.7046 141.981 46.3854C141.981 45.8258 141.861 45.2661 141.621 44.7065C141.421 44.1469 141.082 43.6472 140.602 43.2075C140.122 42.7677 139.482 42.408 138.683 42.1281C137.923 41.8483 137.004 41.7084 135.924 41.7084H129.448ZM131.187 34.6929H137.064C139.462 34.6929 141.241 34.1732 142.401 33.1339C143.6 32.0945 144.2 30.8553 144.2 29.4162C144.2 28.6567 144.02 28.0171 143.66 27.4974C143.34 26.9378 142.901 26.4981 142.341 26.1783C141.781 25.8585 141.142 25.6386 140.422 25.5187C139.702 25.3588 138.963 25.2788 138.203 25.2788C137.364 25.2788 136.464 25.3188 135.505 25.3988C134.545 25.4387 133.826 25.4987 133.346 25.5787L131.187 34.6929Z" fill="white"/>
<path d="M193.654 18.3233L191.735 26.1783H179.562L171.466 59.8769H162.111L170.207 26.1783H158.034L159.952 18.3233H193.654Z" fill="white"/>
<path d="M220.991 58.078C219.352 58.8775 217.533 59.5171 215.534 59.9968C213.535 60.4765 211.096 60.7163 208.218 60.7163C205.739 60.7163 203.46 60.3166 201.381 59.5171C199.343 58.6776 197.584 57.4984 196.104 55.9793C194.665 54.4603 193.546 52.6215 192.746 50.4628C191.947 48.2642 191.547 45.8058 191.547 43.0875C191.547 39.9695 192.087 36.8715 193.166 33.7934C194.285 30.7154 195.904 27.9771 198.023 25.5787C200.182 23.1402 202.801 21.1615 205.879 19.6424C208.997 18.1234 212.575 17.3639 216.613 17.3639C218.532 17.3639 220.411 17.5837 222.25 18.0235C224.129 18.4632 226.088 19.2427 228.127 20.362L224.769 27.6174C223.09 26.7379 221.59 26.1383 220.271 25.8185C218.952 25.4987 217.533 25.3388 216.013 25.3388C213.735 25.3388 211.676 25.7985 209.837 26.7179C208.038 27.6373 206.479 28.8965 205.159 30.4955C203.88 32.0545 202.901 33.8734 202.221 35.9521C201.541 38.0307 201.202 40.2293 201.202 42.5479C201.202 46.0656 201.961 48.624 203.48 50.223C205.039 51.822 207.258 52.6215 210.137 52.6215C212.056 52.6215 213.815 52.4216 215.414 52.0218C217.053 51.6221 218.572 51.1024 219.971 50.4628L220.991 58.078Z" fill="white"/>
<rect x="6" y="10" width="57.9401" height="57.9401" rx="28.97" fill="#DC9B1A"/>
<path d="M30.6823 48.8562C29.5517 48.8562 28.3928 48.8092 27.2056 48.7153C26.0184 48.6213 24.9443 48.4709 23.9833 48.2642L28.5058 29.375C29.58 29.1683 30.7012 29.0273 31.8695 28.9521C33.0567 28.8769 34.1402 28.8393 35.1201 28.8393C36.2507 28.8393 37.2212 28.9615 38.0315 29.2058C38.8606 29.4314 39.5296 29.7415 40.0384 30.1362C40.566 30.5309 40.9523 31.0008 41.1973 31.5458C41.4611 32.0721 41.593 32.636 41.593 33.2374C41.593 33.6509 41.5459 34.0832 41.4517 34.5343C41.3763 34.9854 41.2067 35.4365 40.9429 35.8875C40.6979 36.3198 40.3493 36.7333 39.8971 37.128C39.4636 37.5227 38.8889 37.8798 38.1728 38.1993C39.0208 38.5752 39.6427 39.0921 40.0384 39.7499C40.4341 40.389 40.632 41.1032 40.632 41.8926C40.632 42.7948 40.453 43.6687 40.0949 44.5145C39.7369 45.3415 39.1621 46.0839 38.3707 46.7418C37.5792 47.3808 36.5522 47.8977 35.2897 48.2924C34.0271 48.6683 32.4914 48.8562 30.6823 48.8562ZM30.2866 40.0601L29.0712 45.1348C29.3727 45.1912 29.7496 45.2381 30.2018 45.2757C30.6729 45.2945 31.1063 45.3039 31.502 45.3039C32.0674 45.3039 32.6233 45.2663 33.1697 45.1912C33.7351 45.0972 34.2344 44.9374 34.6678 44.7119C35.1201 44.4863 35.4876 44.1762 35.7702 43.7815C36.0529 43.3868 36.1942 42.8794 36.1942 42.2591C36.1942 41.996 36.1377 41.7328 36.0246 41.4697C35.9304 41.2066 35.7702 40.9716 35.5441 40.7649C35.318 40.5581 35.0165 40.389 34.6396 40.2574C34.2815 40.1259 33.8481 40.0601 33.3393 40.0601H30.2866ZM31.1063 36.7615H33.8764C35.007 36.7615 35.8456 36.5172 36.3921 36.0285C36.9574 35.5398 37.2401 34.9572 37.2401 34.2805C37.2401 33.9234 37.1553 33.6227 36.9857 33.3784C36.8349 33.1152 36.6276 32.9085 36.3638 32.7581C36.1 32.6078 35.7985 32.5044 35.4593 32.448C35.1201 32.3728 34.7715 32.3352 34.4134 32.3352C34.0177 32.3352 33.5937 32.354 33.1415 32.3916C32.6892 32.4104 32.35 32.4386 32.1239 32.4762L31.1063 36.7615Z" fill="white"/>
<path d="M21.356 28.2357H23.2097L18.1701 49.3486H16.3164L21.356 28.2357Z" fill="white"/>
<path d="M57.5825 38.792L43.1733 46.6103L44.2159 42.6435L51.2685 38.792L44.969 35.0559V31.1468L57.5825 38.792Z" fill="white"/>
</svg>
