<svg xmlns="http://www.w3.org/2000/svg" width="234" height="81" viewBox="0 0 234 81" fill="none"><path d="M102.481 71.0897C99.3231 70.9698 96.6846 70.65 94.5657 70.1303C92.4469 69.6107 90.7278 68.9111 89.4085 68.0317C88.1292 67.1922 87.2097 66.1529 86.65 64.9137C86.0903 63.6744 85.8105 62.2753 85.8105 60.7163V60.2966C81.9726 59.4971 78.9143 57.6383 76.6355 54.7201C74.3967 51.802 73.2773 47.9844 73.2773 43.2674C73.2773 40.1494 73.817 37.0514 74.8964 33.9733C75.9759 30.8953 77.515 28.137 79.5139 25.6986C81.5528 23.2202 84.0315 21.2214 86.9499 19.7024C89.8683 18.1434 93.1665 17.3639 96.8445 17.3639C99.2831 17.3639 101.522 17.7636 103.561 18.5631C105.6 19.3626 107.359 20.5219 108.838 22.0409C110.317 23.52 111.456 25.3388 112.256 27.4974C113.096 29.6561 113.515 32.0945 113.515 34.8128C113.515 37.571 113.096 40.3493 112.256 43.1475C111.417 45.9057 110.177 48.4641 108.538 50.8226C106.939 53.1411 104.96 55.1399 102.601 56.8188C100.283 58.4977 97.624 59.637 94.6257 60.2366V60.4165C94.6257 61.2959 94.9055 61.9955 95.4652 62.5152C96.0649 63.0348 96.8445 63.4346 97.8039 63.7144C98.8034 63.9942 99.9428 64.1941 101.222 64.314C102.501 64.434 103.841 64.5339 105.24 64.6138L102.481 71.0897ZM95.885 25.3988C94.046 25.3988 92.3269 25.8785 90.7278 26.8379C89.1687 27.7972 87.7894 29.0764 86.5901 30.6754C85.4307 32.2744 84.5112 34.1132 83.8316 36.1919C83.1919 38.2706 82.8721 40.4092 82.8721 42.6078C82.8721 45.6059 83.4918 48.0444 84.7311 49.9232C86.0104 51.762 88.0693 52.6814 90.9077 52.6814C92.7467 52.6814 94.4458 52.2017 96.0049 51.2423C97.6041 50.283 98.9833 49.0038 100.143 47.4048C101.342 45.8058 102.262 43.987 102.901 41.9483C103.581 39.8696 103.921 37.7109 103.921 35.4724C103.921 32.4743 103.281 30.0558 102.002 28.217C100.762 26.3382 98.7235 25.3988 95.885 25.3988Z" fill="white"/><path d="M130.287 60.4165C127.889 60.4165 125.43 60.3166 122.911 60.1167C120.393 59.9168 118.114 59.597 116.075 59.1573L125.67 18.9828C127.949 18.5431 130.327 18.2433 132.806 18.0834C135.325 17.9235 137.623 17.8436 139.702 17.8436C142.101 17.8436 144.16 18.1034 145.879 18.6231C147.638 19.1028 149.057 19.7624 150.137 20.6018C151.256 21.4413 152.076 22.4407 152.595 23.5999C153.155 24.7192 153.435 25.9184 153.435 27.1976C153.435 28.0771 153.335 28.9965 153.135 29.9559C152.975 30.9153 152.615 31.8747 152.056 32.834C151.536 33.7535 150.796 34.6329 149.837 35.4724C148.917 36.3118 147.698 37.0714 146.179 37.7509C147.978 38.5504 149.297 39.6497 150.137 41.0488C150.976 42.408 151.396 43.927 151.396 45.6059C151.396 47.5247 151.016 49.3835 150.257 51.1824C149.497 52.9413 148.278 54.5203 146.599 55.9194C144.919 57.2785 142.741 58.3778 140.062 59.2173C137.384 60.0168 134.125 60.4165 130.287 60.4165ZM129.448 41.7084L126.869 52.5015C127.509 52.6215 128.309 52.7214 129.268 52.8014C130.267 52.8413 131.187 52.8613 132.026 52.8613C133.226 52.8613 134.405 52.7814 135.565 52.6215C136.764 52.4216 137.823 52.0818 138.743 51.6021C139.702 51.1224 140.482 50.4628 141.082 49.6234C141.681 48.7839 141.981 47.7046 141.981 46.3854C141.981 45.8258 141.861 45.2661 141.621 44.7065C141.421 44.1469 141.082 43.6472 140.602 43.2075C140.122 42.7677 139.482 42.408 138.683 42.1281C137.923 41.8483 137.004 41.7084 135.924 41.7084H129.448ZM131.187 34.6929H137.064C139.462 34.6929 141.241 34.1732 142.401 33.1339C143.6 32.0945 144.2 30.8553 144.2 29.4162C144.2 28.6567 144.02 28.0171 143.66 27.4974C143.34 26.9378 142.901 26.4981 142.341 26.1783C141.781 25.8585 141.142 25.6386 140.422 25.5187C139.702 25.3588 138.963 25.2788 138.203 25.2788C137.364 25.2788 136.464 25.3188 135.505 25.3988C134.545 25.4387 133.826 25.4987 133.346 25.5787L131.187 34.6929Z" fill="white"/><path d="M193.654 18.3233L191.735 26.1783H179.562L171.466 59.8769H162.111L170.207 26.1783H158.034L159.952 18.3233H193.654Z" fill="white"/><path d="M220.991 58.078C219.352 58.8775 217.533 59.5171 215.534 59.9968C213.535 60.4765 211.096 60.7163 208.218 60.7163C205.739 60.7163 203.46 60.3166 201.381 59.5171C199.343 58.6776 197.584 57.4984 196.104 55.9793C194.665 54.4603 193.546 52.6215 192.746 50.4628C191.947 48.2642 191.547 45.8058 191.547 43.0875C191.547 39.9695 192.087 36.8715 193.166 33.7934C194.285 30.7154 195.904 27.9771 198.023 25.5787C200.182 23.1402 202.801 21.1615 205.879 19.6424C208.997 18.1234 212.575 17.3639 216.613 17.3639C218.532 17.3639 220.411 17.5837 222.25 18.0235C224.129 18.4632 226.088 19.2427 228.127 20.362L224.769 27.6174C223.09 26.7379 221.59 26.1383 220.271 25.8185C218.952 25.4987 217.533 25.3388 216.013 25.3388C213.735 25.3388 211.676 25.7985 209.837 26.7179C208.038 27.6373 206.479 28.8965 205.159 30.4955C203.88 32.0545 202.901 33.8734 202.221 35.9521C201.541 38.0307 201.202 40.2293 201.202 42.5479C201.202 46.0656 201.961 48.624 203.48 50.223C205.039 51.822 207.258 52.6215 210.137 52.6215C212.056 52.6215 213.815 52.4216 215.414 52.0218C217.053 51.6221 218.572 51.1024 219.971 50.4628L220.991 58.078Z" fill="white"/><g transform="translate(6,10) scale(0.99897)"><path fill="url(#b)" d="M28.97 57.94a28.97 28.97 0 1 0 0-57.94 28.97 28.97 0 0 0 0 57.94"/><path fill="url(#c)" d="M28.97 57.33a28.36 28.36 0 1 0 0-56.71 28.36 28.36 0 0 0 0 56.71"/><path fill="url(#d)" d="M28.97 54.5a25.52 25.52 0 1 0 0-51.05 25.52 25.52 0 0 0 0 51.04"/><path fill="url(#e)" d="M28.97 53.59a24.61 24.61 0 1 0 0-49.23 24.61 24.61 0 0 0 0 49.23"/><path fill="#fff" d="M24.68 38.86a44 44 0 0 1-3.47-.14q-1.8-.15-3.23-.46l4.53-18.88q1.61-.31 3.36-.43 1.78-.1 3.25-.11 1.7 0 2.91.37 1.25.33 2 .93.8.6 1.17 1.4.4.8.4 1.7 0 .61-.15 1.3-.1.67-.5 1.35-.38.64-1.05 1.24-.65.6-1.73 1.07 1.27.57 1.87 1.55.6.96.6 2.14 0 1.36-.55 2.62a6 6 0 0 1-1.72 2.23 9 9 0 0 1-3.08 1.55q-1.9.57-4.6.57m-.4-8.8-1.2 5.07a12 12 0 0 0 2.42.17q.85 0 1.67-.1a5 5 0 0 0 1.5-.49q.68-.33 1.1-.93a2.6 2.6 0 0 0 .25-2.31q-.13-.4-.48-.7-.33-.32-.9-.51-.55-.2-1.3-.2zm.83-3.3h2.77q1.7 0 2.51-.73.85-.73.85-1.75 0-.54-.25-.9a1.6 1.6 0 0 0-.63-.62 5 5 0 0 0-1.95-.42q-.6 0-1.27.05-.67.03-1.02.09zm-9.76-8.52h1.85l-5.04 21.1h-1.85zM51.58 28.8l-14.4 7.81 1.04-3.97 7.05-3.85-6.3-3.73v-3.91z"/></g><defs><linearGradient id="b" x1="47.19" x2="4.5" y1="-1.56" y2="33.04" gradientUnits="userSpaceOnUse"><stop offset=".05" stop-color="#fae5bd"/><stop offset=".12" stop-color="#f5d899"/><stop offset=".31" stop-color="#d6a84a"/><stop offset=".46" stop-color="#ad7a2b"/><stop offset=".58" stop-color="#ab762a"/><stop offset=".67" stop-color="#c18d2f"/><stop offset=".8" stop-color="#e0b05c"/><stop offset=".89" stop-color="#efd686"/><stop offset="1" stop-color="#fae5b9"/></linearGradient><linearGradient id="c" x1="39.85" x2="2.87" y1="2.87" y2="52.64" gradientUnits="userSpaceOnUse"><stop stop-color="#edcc85"/><stop offset=".11" stop-color="#efd686"/><stop offset=".2" stop-color="#e0b05c"/><stop offset=".33" stop-color="#c18d2f"/><stop offset=".42" stop-color="#ab762a"/><stop offset=".54" stop-color="#ad7a2b"/><stop offset=".69" stop-color="#d6a84a"/><stop offset=".88" stop-color="#ebc572"/><stop offset=".95" stop-color="#e6c07a"/></linearGradient><linearGradient id="d" x1="8.83" x2="49.69" y1="8.83" y2="49.69" gradientUnits="userSpaceOnUse"><stop stop-color="#dc9327"/><stop offset=".04" stop-color="#e8b744"/><stop offset=".08" stop-color="#f2d35b"/><stop offset=".12" stop-color="#f9e76b"/><stop offset=".16" stop-color="#fef375"/><stop offset=".2" stop-color="#fff778"/><stop offset=".28" stop-color="#eac34a"/><stop offset=".34" stop-color="#d99a26"/><stop offset=".36" stop-color="#cb8e24"/><stop offset=".4" stop-color="#b77e21"/><stop offset=".44" stop-color="#ab741f"/><stop offset=".47" stop-color="#a7711e"/><stop offset=".51" stop-color="#ab7622"/><stop offset=".56" stop-color="#b8852e"/><stop offset=".61" stop-color="#cd9e42"/><stop offset=".66" stop-color="#ebc15e"/><stop offset=".68" stop-color="#f6ce69"/><stop offset=".72" stop-color="#f3c962"/><stop offset=".78" stop-color="#ebba4f"/><stop offset=".85" stop-color="#dea231"/><stop offset=".87" stop-color="#d99a26"/><stop offset="1" stop-color="#f6ce69"/></linearGradient><linearGradient id="e" x1="52.35" x2="2.9" y1="15.98" y2="44.82" gradientUnits="userSpaceOnUse"><stop stop-color="#edcc85"/><stop offset=".11" stop-color="#efd686"/><stop offset=".2" stop-color="#e0b05c"/><stop offset=".33" stop-color="#c18d2f"/><stop offset=".42" stop-color="#a8742a"/><stop offset=".54" stop-color="#ad7a2b"/><stop offset=".69" stop-color="#d6a84a"/><stop offset=".88" stop-color="#ebc572"/><stop offset=".95" stop-color="#e6c07a"/></linearGradient></defs></svg>