<svg xmlns="http://www.w3.org/2000/svg" width="58" height="58" viewBox="0 0 58 58" fill="none"><path fill="url(#b)" d="M28.97 57.94a28.97 28.97 0 1 0 0-57.94 28.97 28.97 0 0 0 0 57.94"/><path fill="url(#c)" d="M28.97 57.33a28.36 28.36 0 1 0 0-56.71 28.36 28.36 0 0 0 0 56.71"/><path fill="url(#d)" d="M28.97 54.5a25.52 25.52 0 1 0 0-51.05 25.52 25.52 0 0 0 0 51.04"/><path fill="url(#e)" d="M28.97 53.59a24.61 24.61 0 1 0 0-49.23 24.61 24.61 0 0 0 0 49.23"/><path fill="#fff" d="M24.68 38.86a44 44 0 0 1-3.47-.14q-1.8-.15-3.23-.46l4.53-18.88q1.61-.31 3.36-.43 1.78-.1 3.25-.11 1.7 0 2.91.37 1.25.33 2 .93.8.6 1.17 1.4.4.8.4 1.7 0 .61-.15 1.3-.1.67-.5 1.35-.38.64-1.05 1.24-.65.6-1.73 1.07 1.27.57 1.87 1.55.6.96.6 2.14 0 1.36-.55 2.62a6 6 0 0 1-1.72 2.23 9 9 0 0 1-3.08 1.55q-1.9.57-4.6.57m-.4-8.8-1.2 5.07a12 12 0 0 0 2.42.17q.85 0 1.67-.1a5 5 0 0 0 1.5-.49q.68-.33 1.1-.93a2.6 2.6 0 0 0 .25-2.31q-.13-.4-.48-.7-.33-.32-.9-.51-.55-.2-1.3-.2zm.83-3.3h2.77q1.7 0 2.51-.73.85-.73.85-1.75 0-.54-.25-.9a1.6 1.6 0 0 0-.63-.62 5 5 0 0 0-1.95-.42q-.6 0-1.27.05-.67.03-1.02.09zm-9.76-8.52h1.85l-5.04 21.1h-1.85zM51.58 28.8l-14.4 7.81 1.04-3.97 7.05-3.85-6.3-3.73v-3.91z"/><defs><linearGradient id="b" x1="47.19" x2="4.5" y1="-1.56" y2="33.04" gradientUnits="userSpaceOnUse"><stop offset=".05" stop-color="#fae5bd"/><stop offset=".12" stop-color="#f5d899"/><stop offset=".31" stop-color="#d6a84a"/><stop offset=".46" stop-color="#ad7a2b"/><stop offset=".58" stop-color="#ab762a"/><stop offset=".67" stop-color="#c18d2f"/><stop offset=".8" stop-color="#e0b05c"/><stop offset=".89" stop-color="#efd686"/><stop offset="1" stop-color="#fae5b9"/></linearGradient><linearGradient id="c" x1="39.85" x2="2.87" y1="2.87" y2="52.64" gradientUnits="userSpaceOnUse"><stop stop-color="#edcc85"/><stop offset=".11" stop-color="#efd686"/><stop offset=".2" stop-color="#e0b05c"/><stop offset=".33" stop-color="#c18d2f"/><stop offset=".42" stop-color="#ab762a"/><stop offset=".54" stop-color="#ad7a2b"/><stop offset=".69" stop-color="#d6a84a"/><stop offset=".88" stop-color="#ebc572"/><stop offset=".95" stop-color="#e6c07a"/></linearGradient><linearGradient id="d" x1="8.83" x2="49.69" y1="8.83" y2="49.69" gradientUnits="userSpaceOnUse"><stop stop-color="#dc9327"/><stop offset=".04" stop-color="#e8b744"/><stop offset=".08" stop-color="#f2d35b"/><stop offset=".12" stop-color="#f9e76b"/><stop offset=".16" stop-color="#fef375"/><stop offset=".2" stop-color="#fff778"/><stop offset=".28" stop-color="#eac34a"/><stop offset=".34" stop-color="#d99a26"/><stop offset=".36" stop-color="#cb8e24"/><stop offset=".4" stop-color="#b77e21"/><stop offset=".44" stop-color="#ab741f"/><stop offset=".47" stop-color="#a7711e"/><stop offset=".51" stop-color="#ab7622"/><stop offset=".56" stop-color="#b8852e"/><stop offset=".61" stop-color="#cd9e42"/><stop offset=".66" stop-color="#ebc15e"/><stop offset=".68" stop-color="#f6ce69"/><stop offset=".72" stop-color="#f3c962"/><stop offset=".78" stop-color="#ebba4f"/><stop offset=".85" stop-color="#dea231"/><stop offset=".87" stop-color="#d99a26"/><stop offset="1" stop-color="#f6ce69"/></linearGradient><linearGradient id="e" x1="52.35" x2="2.9" y1="15.98" y2="44.82" gradientUnits="userSpaceOnUse"><stop stop-color="#edcc85"/><stop offset=".11" stop-color="#efd686"/><stop offset=".2" stop-color="#e0b05c"/><stop offset=".33" stop-color="#c18d2f"/><stop offset=".42" stop-color="#a8742a"/><stop offset=".54" stop-color="#ad7a2b"/><stop offset=".69" stop-color="#d6a84a"/><stop offset=".88" stop-color="#ebc572"/><stop offset=".95" stop-color="#e6c07a"/></linearGradient></defs></svg>