<svg width="155" height="54" viewBox="0 0 155 54" fill="none" xmlns="http://www.w3.org/2000/svg">
<path d="M29.2041 53.7259C26.0458 53.6059 23.4072 53.2861 21.2884 52.7665C19.1695 52.2468 17.4505 51.5472 16.1312 50.6678C14.8519 49.8283 13.9324 48.789 13.3727 47.5498C12.813 46.3106 12.5332 44.9115 12.5332 43.3524V42.9327C8.69525 42.1332 5.63692 40.2744 3.35816 37.3563C1.11938 34.4381 0 30.6205 0 25.9035C0 22.7855 0.539695 19.6875 1.61911 16.6094C2.69852 13.5314 4.23768 10.7732 6.23659 8.33471C8.27548 5.85628 10.7541 3.85755 13.6725 2.33852C16.5909 0.779509 19.8891 3.8147e-06 23.5671 3.8147e-06C26.0058 3.8147e-06 28.2446 0.399751 30.2835 1.19924C32.3223 1.99873 34.0814 3.158 35.5606 4.67703C37.0398 6.15609 38.1791 7.97494 38.9787 10.1336C39.8183 12.2922 40.238 14.7306 40.238 17.4489C40.238 20.2072 39.8183 22.9854 38.9787 25.7836C38.1392 28.5419 36.8998 31.1002 35.2607 33.4587C33.6616 35.7773 31.6827 37.776 29.324 39.4549C27.0052 41.1339 24.3467 42.2731 21.3483 42.8728V43.0526C21.3483 43.9321 21.6282 44.6316 22.1879 45.1513C22.7875 45.671 23.5671 46.0707 24.5266 46.3505C25.5261 46.6304 26.6654 46.8302 27.9447 46.9502C29.224 47.0701 30.5633 47.17 31.9625 47.25L29.2041 53.7259ZM22.6077 8.0349C20.7687 8.0349 19.0496 8.51459 17.4505 9.47398C15.8913 10.4334 14.5121 11.7126 13.3127 13.3115C12.1534 14.9105 11.2339 16.7494 10.5542 18.828C9.91458 20.9067 9.59476 23.0454 9.59476 25.244C9.59476 28.2421 10.2144 30.6805 11.4537 32.5593C12.733 34.3981 14.7919 35.3176 17.6304 35.3176C19.4694 35.3176 21.1684 34.8379 22.7276 33.8785C24.3267 32.9191 25.706 31.6399 26.8653 30.0409C28.0647 28.4419 28.9842 26.6231 29.6238 24.5844C30.3034 22.5057 30.6433 20.3471 30.6433 18.1085C30.6433 15.1104 30.0036 12.6919 28.7243 10.8531C27.485 8.9743 25.4461 8.0349 22.6077 8.0349Z" fill="white"/>
<path d="M57.0101 43.0526C54.6114 43.0526 52.1527 42.9527 49.6341 42.7528C47.1155 42.553 44.8367 42.2332 42.7979 41.7934L52.3926 1.61898C54.6714 1.17926 57.0501 0.879447 59.5287 0.719548C62.0473 0.559649 64.3461 0.4797 66.425 0.4797C68.8236 0.4797 70.8825 0.739535 72.6016 1.25921C74.3606 1.7389 75.7798 2.39848 76.8593 3.23795C77.9786 4.07741 78.7982 5.07678 79.3179 6.23604C79.8776 7.35533 80.1575 8.55457 80.1575 9.83376C80.1575 10.7132 80.0575 11.6326 79.8576 12.592C79.6977 13.5514 79.3379 14.5108 78.7782 15.4702C78.2585 16.3896 77.5189 17.269 76.5594 18.1085C75.6399 18.948 74.4206 19.7075 72.9014 20.387C74.7004 21.1865 76.0197 22.2858 76.8593 23.685C77.6988 25.0441 78.1186 26.5631 78.1186 28.2421C78.1186 30.1608 77.7388 32.0197 76.9792 33.8185C76.2196 35.5774 75.0003 37.1564 73.3212 38.5555C71.6421 39.9146 69.4633 41.0139 66.7848 41.8534C64.1062 42.6529 60.848 43.0526 57.0101 43.0526ZM56.1706 24.3445L53.592 35.1377C54.2316 35.2576 55.0312 35.3575 55.9906 35.4375C56.9901 35.4775 57.9096 35.4974 58.7491 35.4974C59.9485 35.4974 61.1278 35.4175 62.2872 35.2576C63.4866 35.0577 64.546 34.7179 65.4655 34.2382C66.4249 33.7585 67.2045 33.099 67.8042 32.2595C68.4039 31.42 68.7037 30.3407 68.7037 29.0216C68.7037 28.4619 68.5838 27.9023 68.3439 27.3426C68.144 26.783 67.8042 26.2833 67.3245 25.8436C66.8447 25.4039 66.2051 25.0441 65.4055 24.7643C64.6459 24.4844 63.7264 24.3445 62.647 24.3445H56.1706ZM57.9096 17.329H63.7864C66.1851 17.329 67.9641 16.8093 69.1235 15.77C70.3228 14.7306 70.9225 13.4914 70.9225 12.0523C70.9225 11.2928 70.7426 10.6532 70.3828 10.1336C70.063 9.57392 69.6232 9.1342 69.0635 8.8144C68.5038 8.4946 67.8642 8.27474 67.1446 8.15482C66.4249 7.99492 65.6854 7.91497 64.9258 7.91497C64.0862 7.91497 63.1867 7.95495 62.2272 8.0349C61.2678 8.07487 60.5482 8.13484 60.0684 8.21478L57.9096 17.329Z" fill="white"/>
<path d="M120.377 0.959396L118.458 8.8144H106.284L98.1889 42.513H88.834L96.9295 8.8144H84.7562L86.6751 0.959396H120.377Z" fill="white"/>
<path d="M147.713 40.7141C146.074 41.5136 144.255 42.1532 142.256 42.6329C140.257 43.1126 137.819 43.3525 134.94 43.3525C132.462 43.3525 130.183 42.9527 128.104 42.1532C126.065 41.3137 124.306 40.1345 122.827 38.6155C121.388 37.0964 120.268 35.2576 119.469 33.099C118.669 30.9004 118.269 28.4419 118.269 25.7237C118.269 22.6056 118.809 19.5076 119.889 16.4296C121.008 13.3515 122.627 10.6133 124.746 8.21478C126.905 5.77633 129.523 3.79759 132.602 2.27856C135.72 0.759522 139.298 3.8147e-06 143.336 3.8147e-06C145.255 3.8147e-06 147.134 0.219865 148.973 0.659587C150.852 1.09931 152.811 1.87881 154.849 2.9981L151.491 10.2535C149.812 9.37405 148.313 8.77443 146.994 8.45463C145.674 8.13483 144.255 7.97494 142.736 7.97494C140.457 7.97494 138.398 8.43464 136.559 9.35406C134.76 10.2735 133.201 11.5327 131.882 13.1317C130.603 14.6907 129.623 16.5095 128.944 18.5882C128.264 20.6669 127.924 22.8655 127.924 25.184C127.924 28.7018 128.684 31.2601 130.203 32.8591C131.762 34.4581 133.981 35.2576 136.859 35.2576C138.778 35.2576 140.537 35.0577 142.136 34.658C143.776 34.2582 145.295 33.7386 146.694 33.099L147.713 40.7141Z" fill="white"/>
</svg>
